<mxfile host="app.diagrams.net" agent="Mozilla/5.0 (Windows NT 10.0; Win64; x64) AppleWebKit/537.36 (KHTML, like Gecko) Chrome/122.0.0.0 Safari/537.36" version="26.0.9">
  <diagram name="Page-1" id="W-FhYE-xPO7UmZUzGvLQ">
    <mxGraphModel dx="521" dy="1053" grid="0" gridSize="10" guides="1" tooltips="1" connect="1" arrows="1" fold="1" page="0" pageScale="1" pageWidth="827" pageHeight="1169" math="0" shadow="0">
      <root>
        <mxCell id="0" />
        <mxCell id="1" parent="0" />
        <mxCell id="lh2e7kVsd47teioQ9dTG-1" value="START" style="rounded=1;whiteSpace=wrap;html=1;" vertex="1" parent="1">
          <mxGeometry x="130.5" y="-67" width="120" height="60" as="geometry" />
        </mxCell>
        <mxCell id="lh2e7kVsd47teioQ9dTG-2" value="OUTPUT &quot;Enter temp in C&quot;" style="shape=parallelogram;perimeter=parallelogramPerimeter;whiteSpace=wrap;html=1;fixedSize=1;" vertex="1" parent="1">
          <mxGeometry x="99" y="26" width="176" height="60" as="geometry" />
        </mxCell>
        <mxCell id="lh2e7kVsd47teioQ9dTG-3" value="INPUT celcius" style="shape=parallelogram;perimeter=parallelogramPerimeter;whiteSpace=wrap;html=1;fixedSize=1;" vertex="1" parent="1">
          <mxGeometry x="84" y="116" width="177" height="60" as="geometry" />
        </mxCell>
        <mxCell id="lh2e7kVsd47teioQ9dTG-4" value="farenhiet = (9/5) * celcius + 32" style="rounded=0;whiteSpace=wrap;html=1;" vertex="1" parent="1">
          <mxGeometry x="85.5" y="212" width="165" height="60" as="geometry" />
        </mxCell>
        <mxCell id="lh2e7kVsd47teioQ9dTG-5" value="OUTPUT fahrenhiet" style="shape=parallelogram;perimeter=parallelogramPerimeter;whiteSpace=wrap;html=1;fixedSize=1;" vertex="1" parent="1">
          <mxGeometry x="77" y="309" width="177" height="60" as="geometry" />
        </mxCell>
        <mxCell id="lh2e7kVsd47teioQ9dTG-6" value="STOP" style="rounded=1;whiteSpace=wrap;html=1;" vertex="1" parent="1">
          <mxGeometry x="108" y="401" width="120" height="60" as="geometry" />
        </mxCell>
      </root>
    </mxGraphModel>
  </diagram>
</mxfile>
